<svg width="23" height="23" viewBox="0 0 23 23" fill="none" xmlns="http://www.w3.org/2000/svg">
<path d="M3.34125 0.610123C2.51983 0.74828 1.77687 1.13512 1.17695 1.7338C0.733939 2.18052 0.544736 2.45683 0.300156 3.03249C-0.0182596 3.76472 0.000199252 3.29499 0.000199252 11.6305C0.000199252 19.7864 -0.00903018 19.464 0.254009 20.1548C0.433983 20.6384 0.710866 21.0713 1.10312 21.4811C1.6615 22.066 2.26141 22.416 3.05514 22.6279L3.43816 22.7292L10.7986 22.7476C16.0363 22.7568 18.2929 22.7476 18.616 22.7108C19.5758 22.6002 20.3511 22.2364 21.0156 21.5779C21.5094 21.0897 21.8001 20.6154 22.0401 19.9015L22.1739 19.5101V11.6812V3.85222L22.0678 3.48841C21.6801 2.14828 20.6741 1.13973 19.3128 0.711437L18.8975 0.582491L11.237 0.577885C7.0238 0.57328 3.47047 0.587095 3.34125 0.610123ZM8.25593 8.9134C9.81109 10.4055 11.0709 11.6443 11.0663 11.6627C11.0571 11.6812 9.77879 12.92 8.22363 14.4167L5.39019 17.1384L4.65645 16.4338C4.25497 16.0515 3.92271 15.7108 3.92732 15.6877C3.92732 15.6601 4.86411 14.7483 6.00395 13.6614C7.13917 12.57 8.07134 11.6673 8.07595 11.6535C8.07595 11.6351 7.14378 10.7233 5.99933 9.62721C4.8595 8.53116 3.92271 7.62393 3.92271 7.61011C3.92271 7.55024 5.33481 6.17788 5.38096 6.18709C5.41326 6.1963 6.70538 7.4213 8.25593 8.9134ZM18.3206 16.2864V17.1384H15.6441H12.9676V16.2864V15.4344H15.6441H18.3206V16.2864Z" fill="white"/>
</svg>
